<?xml version="1.0" encoding="utf-8"?>
<!-- Generator: Adobe Illustrator 18.0.0, SVG Export Plug-In . SVG Version: 6.00 Build 0)  -->
<!DOCTYPE svg PUBLIC "-//W3C//DTD SVG 1.1//EN" "http://www.w3.org/Graphics/SVG/1.1/DTD/svg11.dtd">
<svg version="1.1" id="Layer_1" xmlns="http://www.w3.org/2000/svg" xmlns:xlink="http://www.w3.org/1999/xlink" x="0px" y="0px"
	 viewBox="0 0 128 128" enable-background="new 0 0 128 128" xml:space="preserve">
<path fill="#E67E22" d="M64,13.2C36,13.2,13.2,36,13.2,64S36,114.8,64,114.8S114.8,92,114.8,64C114.8,36,92,13.2,64,13.2z
	 M68.5,93.7c-1.4,1.2-3.1,1.9-4.9,1.9c-1.9,0-3.6-0.6-5-1.8c-1.5-1.3-2.2-3.1-2.2-5.3c0-2,0.7-3.6,2.1-5c1.4-1.4,3.1-2.1,5.1-2.1
	c2,0,3.7,0.7,5.1,2.1c1.4,1.4,2.1,3.1,2.1,5C70.7,90.7,70,92.4,68.5,93.7z M70.4,52.2l-1.6,18c-0.2,2.4-0.6,4.2-1.3,5.5
	c-0.8,1.7-2.3,2.6-4.3,2.6c-2,0-3.5-0.9-4.2-2.6c-0.6-1.3-1-3.1-1.2-5.6l-1.2-17.5c-0.2-3.4-0.3-5.9-0.3-7.4c0-2.4,0.7-4.4,2-5.9
	c1.4-1.5,3.2-2.2,5.4-2.2c3.4,0,5,1.7,5.7,3.1c0.8,1.7,1.2,4,1.2,7C70.7,48.8,70.6,50.5,70.4,52.2z"/>
</svg>
