<?xml version="1.0" encoding="utf-8"?>
<!-- Generator: Adobe Illustrator 18.0.0, SVG Export Plug-In . SVG Version: 6.00 Build 0)  -->
<!DOCTYPE svg PUBLIC "-//W3C//DTD SVG 1.1//EN" "http://www.w3.org/Graphics/SVG/1.1/DTD/svg11.dtd">
<svg version="1.1" id="Layer_1" xmlns="http://www.w3.org/2000/svg" xmlns:xlink="http://www.w3.org/1999/xlink" x="0px" y="0px"
	 viewBox="0 0 128 128" enable-background="new 0 0 128 128" xml:space="preserve">
<path fill="#81CFE0" d="M120.5,80.1h-2.9H55.7h-2.9c-9.1,0-16.5-6.8-16.5-16c0-6.8,4.1-12.7,10.1-15.2c-0.2-1-0.3-2.1-0.3-3.1
	c0-10.5,8.5-19,18.9-19c0.5,0,0.9,0,1.4,0.1c0.5,0,1-0.1,1.5-0.1c4.4,0,8.4,1.5,11.7,4C83,22.7,91.1,17,100.4,17h2.9
	c1.6,0,3.1,0.2,4.6,0.5C96.5,6.7,81,0,64,0C28.7,0,0,28.7,0,64c0,35.3,28.7,64,64,64c30.1,0,55.4-20.8,62.2-48.9
	C124.4,79.8,122.5,80.1,120.5,80.1z"/>
<path fill="none" d="M125.8,47.5c-0.2-0.7-0.4-1.4-0.6-2.1c-0.2,0.6-0.3,1.2-0.5,1.7C125.1,47.2,125.5,47.3,125.8,47.5z"/>
<g>
	<path fill="#F1CE5E" d="M97.7,35h-45l-7.9-6.6H31.6c-2.9,0-5.3,2.4-5.3,5.3v23.8c0,2.9,2.4,5.3,5.3,5.3h66.2c2.9,0,5.3-2.4,5.3-5.3
		V40.3C103,37.4,100.6,35,97.7,35z"/>
	<path fill="#FFFFFF" d="M23.6,41.6h82v18.5h-82V41.6z"/>
	<path fill="#EBEEEE" d="M21,45.6h87.3v18.5H21V45.6z"/>
	<path fill="#EFC84A" d="M19.6,49.6h90c2.9,0,5.3,2.4,5.3,5.3l-6.6,51.6c0,2.9-2.4,5.3-5.3,5.3H26.3c-2.9,0-5.3-2.4-5.3-5.3
		l-6.6-51.6C14.4,51.9,16.7,49.6,19.6,49.6z"/>
</g>
<path fill="#D9D9D9" d="M100.4,17c-9.4,0-17.4,5.7-20.8,13.8c-3.2-2.5-7.3-4-11.7-4c-0.5,0-1,0-1.5,0.1c4.9,0.4,9.3,2.6,12.5,6
	c-0.7,2.1-1,4.4-1,6.8c0,6.6,2.9,12.6,7.4,16.7c-3.7-4-5.9-9.4-5.9-15.3c0-12.5,10.1-22.6,22.6-22.6c3.2,0,6.2,0.7,8.9,1.9
	c-0.9-1-1.9-1.9-2.8-2.9c-1.5-0.3-3-0.5-4.6-0.5H100.4z"/>
<path fill="#D7B442" d="M66.4,71.8c-8.8,0-16,7.2-16,16s7.2,16,16,16s16-7.2,16-16S75.3,71.8,66.4,71.8z M66.4,100.8
	c-7.2,0-13-5.8-13-13s5.8-13,13-13s13,5.8,13,13S73.6,100.8,66.4,100.8z M67.4,81.5c-0.5-0.9-1.4-0.9-2,0l-5.8,5.7
	c-0.5,0.9-0.1,1.6,1,1.6h2.8v5c0,0.6,0.4,1,1,1h4c0.6,0,1-0.4,1-1v-5h2.8c1.1,0,1.5-0.7,1-1.6L67.4,81.5z"/>
<path fill="#D9D9D9" d="M121.4,48.1c1.8,0.4,3.6,1.2,5.1,2.2c-0.2-1-0.4-1.9-0.7-2.9c-0.4-0.1-0.8-0.3-1.1-0.4
	c0.2-0.6,0.4-1.1,0.5-1.7c-0.6-2.1-1.4-4.1-2.2-6.1c0,0.2,0,0.3,0,0.5C123,42.7,122.5,45.5,121.4,48.1z"/>
<path fill="#D9D9D9" d="M120.5,80.1c2,0,3.9-0.4,5.7-1c0.1-0.5,0.2-1,0.4-1.5c-2.6,1.6-5.7,2.5-9,2.5H120.5z"/>
<path fill="#ECECEC" d="M79.3,41.1c0,5.9,2.2,11.2,5.9,15.3c-4.5-4.1-7.4-10.1-7.4-16.7c0-2.4,0.4-4.6,1-6.8
	c-3.2-3.4-7.5-5.6-12.5-6c-0.5,0-0.9-0.1-1.4-0.1c-10.5,0-18.9,8.5-18.9,19c0,1.1,0.1,2.1,0.3,3.1c-5.9,2.5-10.1,8.4-10.1,15.2
	c0,9.1,7.4,16,16.5,16h2.9h61.8c3.3,0,6.4-0.9,9-2.5c1-4.4,1.5-8.9,1.5-13.6c0-4.7-0.5-9.3-1.5-13.7c-1.5-1-3.3-1.8-5.1-2.2
	c1-2.6,1.6-5.4,1.6-8.4c0-0.2,0-0.3,0-0.5c-2.9-7-7.1-13.4-12.2-18.9c-2.7-1.2-5.7-1.9-8.9-1.9C89.4,18.5,79.3,28.6,79.3,41.1z"/>
</svg>
