<?xml version="1.0" encoding="utf-8"?>
<!-- Generator: Adobe Illustrator 18.0.0, SVG Export Plug-In . SVG Version: 6.00 Build 0)  -->
<!DOCTYPE svg PUBLIC "-//W3C//DTD SVG 1.1//EN" "http://www.w3.org/Graphics/SVG/1.1/DTD/svg11.dtd">
<svg version="1.1" id="Layer_1" xmlns="http://www.w3.org/2000/svg" xmlns:xlink="http://www.w3.org/1999/xlink" x="0px" y="0px"
	 viewBox="0 0 128 128" enable-background="new 0 0 128 128" xml:space="preserve">
<g>
	<path fill="#BDC3C7" d="M64,13.2C36,13.2,13.2,36,13.2,64S36,114.8,64,114.8S114.8,92,114.8,64S92,13.2,64,13.2z M90.1,85.5
		c1.8,1.8,1.8,4.6,0,6.4c-0.9,0.9-2,1.3-3.2,1.3c-1.2,0-2.3-0.4-3.2-1.3L63.2,71.3L42.7,91.8c-0.9,0.9-2,1.3-3.2,1.3
		c-1.2,0-2.3-0.4-3.2-1.3c-1.8-1.8-1.8-4.6,0-6.4l20.5-20.5L36.3,44.4c-1.8-1.8-1.8-4.6,0-6.4c1.8-1.8,4.6-1.8,6.4,0l20.5,20.5
		L83.8,38c1.8-1.8,4.6-1.8,6.4,0c1.8,1.8,1.8,4.6,0,6.4L69.6,64.9L90.1,85.5z"/>
</g>
</svg>
