<?xml version="1.0" encoding="utf-8"?>
<!-- Generator: Adobe Illustrator 18.0.0, SVG Export Plug-In . SVG Version: 6.00 Build 0)  -->
<!DOCTYPE svg PUBLIC "-//W3C//DTD SVG 1.1//EN" "http://www.w3.org/Graphics/SVG/1.1/DTD/svg11.dtd">
<svg version="1.1" id="Layer_1" xmlns="http://www.w3.org/2000/svg" xmlns:xlink="http://www.w3.org/1999/xlink" x="0px" y="0px"
	 viewBox="0 0 100 100" enable-background="new 0 0 100 100" xml:space="preserve">
<circle fill="#EFC84A" cx="50" cy="50" r="50"/>
<path fill="#CCD0D2" d="M42,70h17v8H42V70z"/>
<path fill="#E4E7E7" d="M40,78h21c1.1,0,2,0.9,2,2s-0.9,2-2,2H40c-1.1,0-2-0.9-2-2S38.9,78,40,78z"/>
<path fill="#36434F" d="M19,23h62c1.7,0,3,1.3,3,3v41c0,1.7-1.3,3-3,3H19c-1.7,0-3-1.3-3-3V26C16,24.3,17.3,23,19,23z"/>
<path fill="#596875" d="M19,26h62v34H19V26z"/>
<path fill="#E4E7E7" d="M43,35h14c0.6,0,1,0.4,1,1v15c0,0.6-0.4,1-1,1H43c-0.6,0-1-0.4-1-1V36C42,35.4,42.4,35,43,35z"/>
<path fill="#FFFFFF" d="M46,47h8v2h-8V47z"/>
<path fill="#C2C5C5" d="M50,38c1.7,0,3,1.3,3,3c0,1.7-1.3,3-3,3s-3-1.3-3-3C47,39.3,48.3,38,50,38z"/>
<path fill="#E4E7E7" d="M16,63v4c0,1.7,1.3,3,3,3h62c1.7,0,3-1.3,3-3v-4H16z"/>
<path fill="#B7BBBD" d="M42,70h17v3H42V70z"/>
<path fill="#D8D8D8" d="M90.9,38.4h-5.1c-0.4,0-0.6,0.3-0.6,0.6v0.6h6.4v-0.6C91.6,38.7,91.3,38.4,90.9,38.4z M59,49.9v3.8
	c0,0.4,0.3,0.6,0.6,0.6h0.6v-5.1h-0.6C59.3,49.3,59,49.6,59,49.9z M59,58.8v1.9c0,0.4,0.3,0.6,0.6,0.6h0.6v-3.2h-0.6
	C59.3,58.2,59,58.5,59,58.8z M59,65.2v1.9c0,0.4,0.3,0.6,0.6,0.6h0.6v-3.2h-0.6C59.3,64.6,59,64.9,59,65.2z"/>
<path fill="#3B5665" d="M6.7,75c8.6,14.9,24.8,25,43.3,25s34.6-10.1,43.3-25C93.3,75,6.7,75,6.7,75z"/>
<path fill="#BFC3C5" d="M82,45.4h-5.7c-0.4,0-0.6,0.3-0.6,0.6c0,0.4,0.3,0.6,0.6,0.6H82c0.4,0,0.6-0.3,0.6-0.6
	C82.6,45.7,82.3,45.4,82,45.4z M79.1,44.2c0.5,0,1-0.4,1-1c0-0.5-0.4-1-1-1c-0.5,0-1,0.4-1,1C78.2,43.7,78.6,44.2,79.1,44.2z"/>
<path fill="none" d="M59.6,44.2c0-2.8,2.3-5.1,5.1-5.1h28.1c2.8,0,5.1,2.3,5.1,5.1v20c1.3-4.5,2-9.2,2-14.2c0-27.6-22.4-50-50-50
	S0,22.4,0,50s22.4,50,50,50c3.3,0,6.5-0.3,9.6-0.9V44.2z"/>
<path fill="#EFEFEF" d="M92.8,39.1H64.7c-2.8,0-5.1,2.3-5.1,5.1v54.9c0.9-0.2,1.7-0.4,2.6-0.6V51.2c0-0.7,0.6-1.3,1.3-1.3h30.7
	c0.7,0,1.3,0.6,1.3,1.3v19.8c1-2.2,1.9-4.4,2.6-6.8v-20C98,41.3,95.7,39.1,92.8,39.1z"/>
<path fill="#3B5665" d="M94.1,49.9H63.5c-0.7,0-1.3,0.6-1.3,1.3v47.3c0.4-0.1,0.9-0.2,1.3-0.3v-47h30.7v22.3
	c0.5-0.8,0.9-1.7,1.3-2.6V51.2C95.4,50.5,94.8,49.9,94.1,49.9z"/>
<path fill="#3F5E6D" d="M63.4,51.1v47.1C76.6,94.5,88,85,94.3,73.1v-22H63.4z"/>
</svg>
