<?xml version="1.0" encoding="utf-8"?>
<!-- Generator: Adobe Illustrator 18.0.0, SVG Export Plug-In . SVG Version: 6.00 Build 0)  -->
<!DOCTYPE svg PUBLIC "-//W3C//DTD SVG 1.1//EN" "http://www.w3.org/Graphics/SVG/1.1/DTD/svg11.dtd">
<svg version="1.1" id="Layer_1" xmlns="http://www.w3.org/2000/svg" xmlns:xlink="http://www.w3.org/1999/xlink" x="0px" y="0px"
	 viewBox="0 0 128 128" enable-background="new 0 0 128 128" xml:space="preserve">
<g>
	<path fill="#BDC3C7" d="M65.8,82.8c-0.8,0.8-1.8,1.3-2.9,1.6c-0.4,0.1-0.9,0.2-1.3,0.2c-1.4,0-2.8-0.5-3.9-1.5
		c-0.1-0.1-0.2-0.2-0.3-0.2L40.2,65.7c-2.3-2.3-2.3-6.1,0-8.5c2.3-2.3,6.1-2.3,8.5,0l12.9,12.9L101.7,30
		C92.4,19.7,78.9,13.2,64,13.2C36,13.2,13.2,36,13.2,64c0,28,22.8,50.8,50.8,50.8c28,0,50.8-22.8,50.8-50.8c0-8.7-2.2-16.9-6.1-24.1
		L65.8,82.8z"/>
</g>
</svg>
