<?xml version="1.0" encoding="utf-8"?>
<!-- Generator: Adobe Illustrator 18.0.0, SVG Export Plug-In . SVG Version: 6.00 Build 0)  -->
<!DOCTYPE svg PUBLIC "-//W3C//DTD SVG 1.1//EN" "http://www.w3.org/Graphics/SVG/1.1/DTD/svg11.dtd">
<svg version="1.1" xmlns="http://www.w3.org/2000/svg" xmlns:xlink="http://www.w3.org/1999/xlink" x="0px" y="0px"
	 viewBox="0 0 128 128" enable-background="new 0 0 128 128" xml:space="preserve">
<g id="Layer_1">
	<ellipse fill="#C8F7C5" cx="64.1" cy="64" rx="63.9" ry="64"/>
	<g>
		<path fill="none" d="M95.4,48.9c-5,0-9.3,1.8-12.4,5v16h30.3v-2C113.2,56.8,105.8,48.9,95.4,48.9z"/>
		<path fill="none" d="M63.9,123.4c-1.7,0-3.1-1.4-3.1-3.1V88.4H16.4c-1.8,0-3.3-1.5-3.3-3.3v-60C4.9,35.9,0,49.4,0,64
			c0,35.3,28.7,64,64,64c8.4,0,16.4-1.6,23.8-4.6H63.9z"/>
		<path fill="none" d="M70.1,10.1C74.4,14.4,83,23,83,23v20.6c3.7-2,7.9-3.1,12.4-3.1c14.5,0,26.2,11.8,26.2,26.4v3h5.2
			c0.3,0,0.6,0.1,0.9,0.1c0.2-2,0.3-4,0.3-6c0-35.3-28.7-64-64-64C52.9,0,42.5,2.8,33.5,7.7h34.2L70.1,10.1z"/>
		<path fill="#DADFE1" d="M77.5,67.9v2H83v-16C79.5,57.2,77.5,62.1,77.5,67.9z"/>
		<path fill="#2CA4D5" d="M70.1,10.1L83,23C83,23,74.4,14.4,70.1,10.1z"/>
		<path fill="#FFFFFF" d="M16.4,88.4h44.3V78.3v-1v-3.1v-1c0-1.7,1.4-3.1,3.1-3.1h5.2v-3c0-10,5.6-18.8,13.8-23.2V23
			c0.1,0-1.5,0-3.3,0H71c-1.8,0-3.3-1.5-3.3-3.3v-12H33.5C25.5,12.1,18.6,18,13.2,25.1v60C13.2,87,14.6,88.4,16.4,88.4z M54.2,29.2
			h12c0.8,0,1.5,0.7,1.5,1.5c0,0.8-0.7,1.5-1.5,1.5h-12c-0.8,0-1.5-0.7-1.5-1.5C52.7,29.9,53.4,29.2,54.2,29.2z M35.2,27.2
			c1.9,0,3.5,1.6,3.5,3.5c0,1.9-1.6,3.5-3.5,3.5s-3.5-1.6-3.5-3.5C31.7,28.8,33.3,27.2,35.2,27.2z M25.2,27.2c1.9,0,3.5,1.6,3.5,3.5
			c0,1.9-1.6,3.5-3.5,3.5s-3.5-1.6-3.5-3.5C21.7,28.8,23.3,27.2,25.2,27.2z M23.2,43.2h43c0.8,0,1.5,0.7,1.5,1.5
			c0,0.8-0.7,1.5-1.5,1.5h-43c-0.8,0-1.5-0.7-1.5-1.5C21.7,43.9,22.4,43.2,23.2,43.2z M23.2,50.2h43c0.8,0,1.5,0.7,1.5,1.5
			c0,0.8-0.7,1.5-1.5,1.5h-43c-0.8,0-1.5-0.7-1.5-1.5C21.7,50.9,22.4,50.2,23.2,50.2z M23.2,57.2h43c0.8,0,1.5,0.7,1.5,1.5
			s-0.7,1.5-1.5,1.5h-43c-0.8,0-1.5-0.7-1.5-1.5S22.4,57.2,23.2,57.2z M23.2,64.2h43c0.8,0,1.5,0.7,1.5,1.5s-0.7,1.5-1.5,1.5h-43
			c-0.8,0-1.5-0.7-1.5-1.5S22.4,64.2,23.2,64.2z M23.2,71.2h30c0.8,0,1.5,0.7,1.5,1.5s-0.7,1.5-1.5,1.5h-30c-0.8,0-1.5-0.7-1.5-1.5
			S22.4,71.2,23.2,71.2z"/>
		<path fill="#E6E6E6" d="M67.7,7.7v12c0,1.8,1.5,3.3,3.3,3.3h8.7c1.8,0,3.3,0,3.3,0L70.1,10.1L67.7,7.7z"/>
		<circle fill="#E6E6E6" cx="25.2" cy="30.7" r="3.5"/>
		<path fill="#E6E6E6" d="M23.2,46.2h43c0.8,0,1.5-0.7,1.5-1.5c0-0.8-0.7-1.5-1.5-1.5h-43c-0.8,0-1.5,0.7-1.5,1.5
			C21.7,45.6,22.4,46.2,23.2,46.2z"/>
		<path fill="#E6E6E6" d="M23.2,74.2h30c0.8,0,1.5-0.7,1.5-1.5s-0.7-1.5-1.5-1.5h-30c-0.8,0-1.5,0.7-1.5,1.5S22.4,74.2,23.2,74.2z"
			/>
		<path fill="#E6E6E6" d="M23.2,53.2h43c0.8,0,1.5-0.7,1.5-1.5c0-0.8-0.7-1.5-1.5-1.5h-43c-0.8,0-1.5,0.7-1.5,1.5
			C21.7,52.6,22.4,53.2,23.2,53.2z"/>
		<path fill="#E6E6E6" d="M23.2,67.2h43c0.8,0,1.5-0.7,1.5-1.5s-0.7-1.5-1.5-1.5h-43c-0.8,0-1.5,0.7-1.5,1.5S22.4,67.2,23.2,67.2z"
			/>
		<circle fill="#E6E6E6" cx="35.2" cy="30.7" r="3.5"/>
		<path fill="#E6E6E6" d="M54.2,32.2h12c0.8,0,1.5-0.7,1.5-1.5c0-0.8-0.7-1.5-1.5-1.5h-12c-0.8,0-1.5,0.7-1.5,1.5
			C52.7,31.6,53.4,32.2,54.2,32.2z"/>
		<path fill="#E6E6E6" d="M23.2,60.2h43c0.8,0,1.5-0.7,1.5-1.5s-0.7-1.5-1.5-1.5h-43c-0.8,0-1.5,0.7-1.5,1.5S22.4,60.2,23.2,60.2z"
			/>
		<path fill="#EFC84A" d="M63.9,81.4c-1.7,0-3.1-1.4-3.1-3.1v10.1v31.8c0,1.7,1.4,3.1,3.1,3.1h23.9c18.3-7.3,32.4-22.8,37.8-42H63.9
			z M92,108.7l1.2-6.7c-1.2-0.8-2-2.1-2-3.7c0-2.4,1.9-4.3,4.2-4.3c2.3,0,4.2,1.9,4.2,4.3c0,1.6-0.8,2.9-2,3.7l1.2,6.7H92z"/>
		<path fill="#D7B442" d="M121.6,69.9v2.9c1.3,0.6,2.1,1.4,2.1,2.3c0,1.7-3,3.1-6.2,3.1c-3.2,0-6.4-1.4-6.4-3.1
			c0-0.9,0.8-1.7,2.1-2.3v-3H83h-5.4v2.9c1.3,0.6,2.1,1.4,2.1,2.3c0,1.7-3,3.1-6.2,3.1S67,76.9,67,75.1c0-0.9,0.8-1.7,2.1-2.3v-3
			h-5.2c-1.7,0-3.1,1.4-3.1,3.1v1v3.1c0,1.7,1.4,3.1,3.1,3.1h62c0.9-3.4,1.5-6.8,1.8-10.4c-0.3-0.1-0.6-0.1-0.9-0.1H121.6z"/>
		<path fill="#796320" d="M121.3,75.1c-0.6,0.6-2.3,1.1-3.9,1.1c0,0,0,0,0,0c-1.6,0-3.3-0.5-3.9-1.1h-0.3v-2.2
			c-1.3,0.6-2.1,1.4-2.1,2.3c0,1.7,3.2,3.1,6.4,3.1c3.2,0,6.2-1.4,6.2-3.1c0-0.9-0.8-1.7-2.1-2.3v2.3H121.3z"/>
		<path fill="#796320" d="M77.3,75.1c-0.6,0.6-2.3,1.1-3.9,1.1s-3.3-0.5-3.9-1.1h-0.3v-2.2c-1.3,0.6-2.1,1.4-2.1,2.3
			c0,1.7,3.2,3.1,6.4,3.1s6.2-1.4,6.2-3.1c0-0.9-0.8-1.7-2.1-2.3v2.3H77.3z"/>
		<path fill="#EEEEEE" d="M69.1,72.9v2.2h0.3c0.6,0.6,2.3,1.1,3.9,1.1v-8.3c0-12.8,9.9-23.2,22-23.2c12.2,0,22,10.4,22,23.2v8.3
			c1.6,0,3.3-0.5,3.9-1.1h0.3v-2.3v-2.9v-3c0-14.6-11.7-26.4-26.2-26.4c-4.5,0-8.7,1.1-12.4,3.1c-8.2,4.5-13.8,13.2-13.8,23.2v3
			V72.9z"/>
		<path fill="#553E00" d="M97.5,102c1.2-0.8,2-2.1,2-3.7c0-2.4-1.9-4.3-4.2-4.3c-2.3,0-4.2,1.9-4.2,4.3c0,1.6,0.8,2.9,2,3.7
			l-1.2,6.7h6.7L97.5,102z"/>
		<path fill="#BDC3C7" d="M113.5,75.1c0.6,0.6,2.3,1.1,3.9,1.1c0,0,0,0,0,0v-8.3c0-12.8-9.9-23.2-22-23.2c-12.2,0-22,10.4-22,23.2
			v8.3c1.6,0,3.3-0.5,3.9-1.1h0.3v-2.3v-2.9v-2c0-5.8,2-10.7,5.4-14.1c3.1-3.1,7.4-5,12.4-5c10.4,0,17.8,7.9,17.8,19v2v3v2.2H113.5z
			"/>
		<path fill="#F2D067" d="M63.9,80.4c-1.7,0-3.1-1.4-3.1-3.1v1c0,1.7,1.4,3.1,3.1,3.1h61.7c0.1-0.4,0.2-0.7,0.3-1H63.9z"/>
	</g>
</g>
<g id="Layer_2">
</g>
</svg>
