<?xml version="1.0" encoding="utf-8"?>
<!-- Generator: Adobe Illustrator 18.0.0, SVG Export Plug-In . SVG Version: 6.00 Build 0)  -->
<!DOCTYPE svg PUBLIC "-//W3C//DTD SVG 1.1//EN" "http://www.w3.org/Graphics/SVG/1.1/DTD/svg11.dtd">
<svg version="1.1" id="Layer_1" xmlns="http://www.w3.org/2000/svg" xmlns:xlink="http://www.w3.org/1999/xlink" x="0px" y="0px"
	 viewBox="0 0 612 792" enable-background="new 0 0 612 792" xml:space="preserve">
<path id="XMLID_1_" fill="#808285" d="M99.2,681.3l11.4,30.3c1.1,3.5,2.2,7.6,3.5,10.6h0.4c1.1-3,1.9-7.2,3.5-10.6l10.3-30.3h9.9
	L124,718c-6.8,17.8-11.4,26.9-17.8,32.2c-4.6,4.2-9,5.7-11.4,6.1l-2.2-7.9c2.2-0.7,5.3-2.2,8.3-4.6c2.6-1.9,5.7-5.7,7.9-10.6
	c0.4-1.1,0.7-1.5,0.7-2.2c0-0.4-0.4-1.1-0.7-2.2l-19.1-47.4L99.2,681.3L99.2,681.3z"/>
<path fill="#808285" d="M146.2,695.2c0-5.3,0-9.9-0.4-14h8.3l0.4,8.3h0.4c2.6-5,8.3-9.9,17.1-9.9c7.2,0,18.2,4.2,18.2,21.9v30.7
	h-9.5v-29.6c0-8.3-3-15.1-11.8-15.1c-6.1,0-11,4.6-12.5,9.5c-0.4,1.1-0.7,2.6-0.7,4.6v31.1h-9.5V695.2L146.2,695.2z"/>
<path fill="#808285" d="M242,730.9c-2.2,1.1-7.9,3-14.7,3c-15.5,0-25.7-10.6-25.7-26.1c0-16,11-27.2,27.6-27.2
	c5.7,0,10.6,1.5,12.9,2.6l-2.2,7.2c-2.2-1.1-5.7-2.2-11-2.2c-11.8,0-18.2,8.7-18.2,19.3c0,11.8,7.6,19.3,17.8,19.3
	c5.3,0,8.7-1.5,11.4-2.6L242,730.9z"/>
<path fill="#808285" d="M298.8,706.6c0,18.9-13.2,27.2-25.7,27.2c-14,0-24.6-10.3-24.6-26.5c0-17.5,11.4-27.2,25.4-27.2
	C288.9,680.1,298.8,691,298.8,706.6z M258,707.4c0,11.4,6.4,19.7,15.5,19.7S289,718.8,289,707c0-8.7-4.6-19.7-15.5-19.7
	C262.8,687.3,258,697.5,258,707.4z"/>
<path fill="#808285" d="M310.6,695.2c0-5.3,0-9.9-0.4-14h8.3l0.4,8.3h0.4c2.6-5,8.3-9.9,17.1-9.9c7.2,0,18.2,4.2,18.2,21.9v30.7
	h-9.4v-29.6c0-8.3-3-15.1-11.8-15.1c-6.1,0-11,4.6-12.5,9.5c-0.4,1.1-0.7,2.6-0.7,4.6v31.1h-9.5L310.6,695.2L310.6,695.2z"/>
<path fill="#808285" d="M367.4,727.4c0-3.8,2.6-6.8,6.4-6.8s6.4,2.6,6.4,6.8c0,3.8-2.2,6.8-6.4,6.8
	C370,733.9,367.4,731.3,367.4,727.4z"/>
<path fill="#808285" d="M391.7,695.2c0-5.3,0-9.9-0.4-14h8.3l0.4,8.3h0.4c3-5,7.6-9.4,16.3-9.4c7.2,0,12.5,4.2,14.4,10.3h0.4
	c1.5-3,3.8-5,5.7-6.8c3-2.2,6.4-3.8,11.4-3.8c6.8,0,17.1,4.6,17.1,22.4v30.3h-9v-29.2c0-9.9-3.8-16-11.4-16c-5.3,0-9.4,3.8-11,8.3
	c-0.4,1.1-0.7,3-0.7,4.6V732h-9v-30c0-8.3-3.8-14-10.6-14c-5.7,0-10.3,4.6-11.8,9.4c-0.4,1.5-0.7,3-0.7,4.6v31.1h-9v-37.9
	L391.7,695.2L391.7,695.2z"/>
<path fill="#808285" d="M485.6,708.9c0.4,12.5,8.3,17.8,17.8,17.8c6.8,0,10.6-1.1,14.4-2.6l1.5,6.8c-3.5,1.5-9,3-17.1,3
	c-16,0-25.4-10.6-25.4-26.1s9-27.6,24.3-27.6c16.7,0,21.2,14.7,21.2,24.3c0,1.9-0.4,3.5-0.4,4.6h-36.3L485.6,708.9L485.6,708.9z
	 M513.2,702.1c0-6.1-2.2-15.1-12.9-15.1c-9.4,0-13.6,8.7-14.4,15.1H513.2z"/>
<path fill="#E67E22" d="M93.7,584.6c-8.3,0-16.3-2.6-21.9-6.1l-3,10.3c5,3.5,14.7,6.1,23.9,6.1c0.7,0,2,0,2.7,0c0-3.5,0-7.1,0-10.2
	C95.3,584.3,94,584.6,93.7,584.6z"/>
<path fill="#E67E22" d="M83.1,521.7c0-5.3,3.5-11.4,11.8-13.2c0-3.5,0-6.8,0-10.3c-14.7,2.2-23.9,12.1-23.9,25
	c0,12.9,9,20.8,23.9,26.5c0-4.2,0-8.3,0-12.5C86.8,533.1,83.1,528.9,83.1,521.7z"/>
<rect x="105.8" y="481.3" fill="#E67E22" width="2.2" height="131.8"/>
<polygon fill="#E67E22" points="57.6,501.4 107.5,486.4 105.8,481.3 56.8,498.9 "/>
<polygon fill="#E67E22" points="57.8,592.8 107.7,607.9 105.9,612.9 57,595.3 "/>
<g>
	<path fill="#00AEEF" d="M137,509.1c8.3,0,14.7,2.6,17.8,4.6l3.5-9.9c-4.2-2.2-11.4-4.6-20.8-4.6c-2.2,0-4.6,0-6.4,0.4
		c0,3.5,0,6.8,0,10.3C132.9,509.4,134.8,509.1,137,509.1z"/>
	<path fill="#00AEEF" d="M162,570.8c0-13.6-7.9-21.5-23.9-27.6c-2.6-1.1-5-1.9-6.8-3c0,4.2,0,8.3,0,12.5c0.4,0,0.4,0.4,0.7,0.4
		c12.9,5,17.8,9.9,17.8,18.6c0,9-6.8,15.5-18.6,16c0,3.5,0,6.4,0,9.9C152.2,597,162,584.8,162,570.8z"/>
	<rect x="121.5" y="481.3" fill="#00AEEF" width="2.2" height="131.1"/>
	<polygon fill="#00AEEF" points="149.2,498.3 121.6,486.4 123.7,481.3 149.7,497.5 	"/>
	<polygon fill="#00AEEF" points="149.5,595.3 121.8,607.3 123.7,612.4 149.9,596.2 	"/>
</g>
<circle fill="#E67E22" cx="267.4" cy="275.5" r="45.5"/>
</svg>
