<?xml version="1.0" encoding="utf-8"?>
<!-- Generator: Adobe Illustrator 18.0.0, SVG Export Plug-In . SVG Version: 6.00 Build 0)  -->
<!DOCTYPE svg PUBLIC "-//W3C//DTD SVG 1.1//EN" "http://www.w3.org/Graphics/SVG/1.1/DTD/svg11.dtd">
<svg version="1.1" id="Layer_1" xmlns="http://www.w3.org/2000/svg" xmlns:xlink="http://www.w3.org/1999/xlink" x="0px" y="0px"
	 viewBox="0 0 200 70" enable-background="new 0 0 200 70" xml:space="preserve">
<path fill="#808285" d="M57.4,34.5l3,8c0.3,0.9,0.6,2,0.9,2.8h0.1c0.3-0.8,0.5-1.9,0.9-2.8l2.7-8h2.6l-3.7,9.7
	c-1.8,4.7-3,7.1-4.7,8.5c-1.2,1.1-2.4,1.5-3,1.6l-0.6-2.1c0.6-0.2,1.4-0.6,2.2-1.2c0.7-0.5,1.5-1.5,2.1-2.8c0.1-0.3,0.2-0.4,0.2-0.6
	c0-0.1-0.1-0.3-0.2-0.6l-5-12.5H57.4z"/>
<path fill="#808285" d="M69.8,38.2c0-1.4,0-2.6-0.1-3.7h2.2l0.1,2.2h0.1c0.7-1.3,2.2-2.6,4.5-2.6c1.9,0,4.8,1.1,4.8,5.8v8.1h-2.5
	v-7.8c0-2.2-0.8-4-3.1-4c-1.6,0-2.9,1.2-3.3,2.5c-0.1,0.3-0.2,0.7-0.2,1.2v8.2h-2.5V38.2z"/>
<path fill="#808285" d="M95.1,47.6c-0.6,0.3-2.1,0.8-3.9,0.8c-4.1,0-6.8-2.8-6.8-6.9c0-4.2,2.9-7.2,7.3-7.2c1.5,0,2.8,0.4,3.4,0.7
	l-0.6,1.9c-0.6-0.3-1.5-0.6-2.9-0.6c-3.1,0-4.8,2.3-4.8,5.1c0,3.1,2,5.1,4.7,5.1c1.4,0,2.3-0.4,3-0.7L95.1,47.6z"/>
<path fill="#808285" d="M110.1,41.2c0,5-3.5,7.2-6.8,7.2c-3.7,0-6.5-2.7-6.5-7c0-4.6,3-7.2,6.7-7.2
	C107.5,34.2,110.1,37.1,110.1,41.2z M99.3,41.4c0,3,1.7,5.2,4.1,5.2c2.4,0,4.1-2.2,4.1-5.3c0-2.3-1.2-5.2-4.1-5.2
	C100.6,36.1,99.3,38.8,99.3,41.4z"/>
<path fill="#808285" d="M113.2,38.2c0-1.4,0-2.6-0.1-3.7h2.2l0.1,2.2h0.1c0.7-1.3,2.2-2.6,4.5-2.6c1.9,0,4.8,1.1,4.8,5.8v8.1h-2.5
	v-7.8c0-2.2-0.8-4-3.1-4c-1.6,0-2.9,1.2-3.3,2.5c-0.1,0.3-0.2,0.7-0.2,1.2v8.2h-2.5V38.2z"/>
<path fill="#808285" d="M128.2,46.7c0-1,0.7-1.8,1.7-1.8s1.7,0.7,1.7,1.8c0,1-0.6,1.8-1.7,1.8C128.9,48.4,128.2,47.7,128.2,46.7z"/>
<path fill="#808285" d="M134.6,38.2c0-1.4,0-2.6-0.1-3.7h2.2l0.1,2.2h0.1c0.8-1.3,2-2.5,4.3-2.5c1.9,0,3.3,1.1,3.8,2.7h0.1
	c0.4-0.8,1-1.3,1.5-1.8c0.8-0.6,1.7-1,3-1c1.8,0,4.5,1.2,4.5,5.9v8h-2.4v-7.7c0-2.6-1-4.2-3-4.2c-1.4,0-2.5,1-2.9,2.2
	c-0.1,0.3-0.2,0.8-0.2,1.2v8.4h-2.4V40c0-2.2-1-3.7-2.8-3.7c-1.5,0-2.7,1.2-3.1,2.5c-0.1,0.4-0.2,0.8-0.2,1.2v8.2h-2.4V38.2z"/>
<path fill="#808285" d="M159.4,41.8c0.1,3.3,2.2,4.7,4.7,4.7c1.8,0,2.8-0.3,3.8-0.7l0.4,1.8c-0.9,0.4-2.4,0.8-4.5,0.8
	c-4.2,0-6.7-2.8-6.7-6.9c0-4.1,2.4-7.3,6.4-7.3c4.4,0,5.6,3.9,5.6,6.4c0,0.5-0.1,0.9-0.1,1.2H159.4z M166.7,40c0-1.6-0.6-4-3.4-4
	c-2.5,0-3.6,2.3-3.8,4H166.7z"/>
<path fill="#F7941E" d="M48.7,45.5c-2.2,0-4.3-0.7-5.8-1.6l-0.8,2.7c1.3,0.9,3.9,1.6,6.3,1.6c0.2,0,0.3,0,0.5,0c0-0.9,0-1.8,0-2.6
	C48.9,45.5,48.8,45.5,48.7,45.5z"/>
<path fill="#F7941E" d="M45.9,28.9c0-1.4,0.9-3,3.1-3.5c0-0.9,0-1.8,0-2.7c-3.9,0.6-6.3,3.2-6.3,6.6c0,3.4,2.4,5.5,6.3,7
	c0-1.1,0-2.2,0-3.3C46.9,31.9,45.9,30.8,45.9,28.9z"/>
<rect x="49" y="19.8" fill="#F7941E" width="0.6" height="34.8"/>
<path fill="#00AEEF" d="M139.9,26.9c0-2.2,0.7-3.9,1.2-4.7l-2.6-0.9c-0.6,1.1-1.2,3-1.2,5.5c0,0.6,0,1.2,0.1,1.7c0.9,0,1.8,0,2.7,0
	C140,28,139.9,27.5,139.9,26.9z"/>
<path fill="#00AEEF" d="M156.2,20.3c-3.6,0-5.7,2.1-7.3,6.3c-0.3,0.7-0.5,1.3-0.8,1.8c1.1,0,2.2,0,3.3,0c0-0.1,0.1-0.1,0.1-0.2
	c1.3-3.4,2.6-4.7,4.9-4.7c2.4,0,4.1,1.8,4.2,4.9c0.9,0,1.7,0,2.6,0C163.1,22.9,159.9,20.3,156.2,20.3z"/>
<rect x="134.4" y="28.3" fill="#00AEEF" width="34.6" height="0.6"/>
<path fill="#F7941E" d="M36.6,32.8v2.4h-4.5v3.9h4.5v2.4l5.4-4.4L36.6,32.8z"/>
<path fill="#00AEEF" d="M146.6,14.2h2.2v4h3.5v-4h2.2l-3.9-4.8L146.6,14.2z"/>
</svg>
