<?xml version="1.0" encoding="utf-8"?>
<!-- Generator: Adobe Illustrator 18.0.0, SVG Export Plug-In . SVG Version: 6.00 Build 0)  -->
<!DOCTYPE svg PUBLIC "-//W3C//DTD SVG 1.1//EN" "http://www.w3.org/Graphics/SVG/1.1/DTD/svg11.dtd">
<svg version="1.1" id="Layer_1" xmlns="http://www.w3.org/2000/svg" xmlns:xlink="http://www.w3.org/1999/xlink" x="0px" y="0px"
	 viewBox="64.9 297.5 494.4 176.3" enable-background="new 64.9 297.5 494.4 176.3" xml:space="preserve">
<path id="XMLID_1_" fill="#808285" d="M175.6,394.5l9.2,24.5c0.9,2.8,1.8,6.1,2.8,8.6h0.3c0.9-2.4,1.5-5.8,2.8-8.6l8.3-24.5h8
	l-11.3,29.7c-5.5,14.4-9.2,21.7-14.4,26c-3.7,3.4-7.3,4.6-9.2,4.9l-1.8-6.4c1.8-0.6,4.3-1.8,6.7-3.7c2.1-1.5,4.6-4.6,6.4-8.6
	c0.3-0.9,0.6-1.2,0.6-1.8c0-0.3-0.3-0.9-0.6-1.8L168,394.5L175.6,394.5L175.6,394.5z"/>
<path fill="#808285" d="M213.6,405.8c0-4.3,0-8-0.3-11.3h6.7l0.3,6.7h0.3c2.1-4,6.7-8,13.8-8c5.8,0,14.7,3.4,14.7,17.7v24.8h-7.7
	v-23.9c0-6.7-2.4-12.2-9.5-12.2c-4.9,0-8.9,3.7-10.1,7.7c-0.3,0.9-0.6,2.1-0.6,3.7v25.1h-7.7V405.8z"/>
<path fill="#808285" d="M291,434.6c-1.8,0.9-6.4,2.4-11.9,2.4c-12.5,0-20.8-8.6-20.8-21.1c0-12.9,8.9-22,22.3-22
	c4.6,0,8.6,1.2,10.4,2.1l-1.8,5.8c-1.8-0.9-4.6-1.8-8.9-1.8c-9.5,0-14.7,7-14.7,15.6c0,9.5,6.1,15.6,14.4,15.6c4.3,0,7-1.2,9.2-2.1
	L291,434.6z"/>
<path fill="#808285" d="M336.9,415c0,15.3-10.7,22-20.8,22c-11.3,0-19.9-8.3-19.9-21.4c0-14.1,9.2-22,20.5-22
	C328.9,393.6,336.9,402.4,336.9,415z M303.9,415.6c0,9.2,5.2,15.9,12.5,15.9s12.5-6.7,12.5-16.2c0-7-3.7-15.9-12.5-15.9
	C307.8,399.4,303.9,407.6,303.9,415.6z"/>
<path fill="#808285" d="M346.4,405.8c0-4.3,0-8-0.3-11.3h6.7l0.3,6.7h0.3c2.1-4,6.7-8,13.8-8c5.8,0,14.7,3.4,14.7,17.7v24.8h-7.6
	v-23.9c0-6.7-2.4-12.2-9.5-12.2c-4.9,0-8.9,3.7-10.1,7.7c-0.3,0.9-0.6,2.1-0.6,3.7v25.1h-7.7V405.8z"/>
<path fill="#808285" d="M392.3,431.8c0-3.1,2.1-5.5,5.2-5.5c3.1,0,5.2,2.1,5.2,5.5c0,3.1-1.8,5.5-5.2,5.5
	C394.4,437,392.3,434.9,392.3,431.8z"/>
<path fill="#808285" d="M411.9,405.8c0-4.3,0-8-0.3-11.3h6.7l0.3,6.7h0.3c2.4-4,6.1-7.6,13.2-7.6c5.8,0,10.1,3.4,11.6,8.3h0.3
	c1.2-2.4,3.1-4,4.6-5.5c2.4-1.8,5.2-3.1,9.2-3.1c5.5,0,13.8,3.7,13.8,18.1v24.5h-7.3v-23.6c0-8-3.1-12.9-9.2-12.9
	c-4.3,0-7.6,3.1-8.9,6.7c-0.3,0.9-0.6,2.4-0.6,3.7v25.7h-7.3v-24.2c0-6.7-3.1-11.3-8.6-11.3c-4.6,0-8.3,3.7-9.5,7.6
	c-0.3,1.2-0.6,2.4-0.6,3.7v25.1h-7.3v-30.6H411.9z"/>
<path fill="#808285" d="M487.8,416.8c0.3,10.1,6.7,14.4,14.4,14.4c5.5,0,8.6-0.9,11.6-2.1l1.2,5.5c-2.8,1.2-7.3,2.4-13.8,2.4
	c-12.9,0-20.5-8.6-20.5-21.1c0-12.5,7.3-22.3,19.6-22.3c13.5,0,17.1,11.9,17.1,19.6c0,1.5-0.3,2.8-0.3,3.7H487.8z M510.1,411.3
	c0-4.9-1.8-12.2-10.4-12.2c-7.6,0-11,7-11.6,12.2H510.1z"/>
<path fill="#E67E22" d="M149,428.1c-6.7,0-13.2-2.1-17.7-4.9l-2.4,8.3c4,2.8,11.9,4.9,19.3,4.9c0.6,0,1.6,0,2.2,0c0-2.8,0-5.7,0-8.2
	C150.3,427.9,149.3,428.1,149,428.1z"/>
<path fill="#E67E22" d="M140.5,377.3c0-4.3,2.8-9.2,9.5-10.7c0-2.8,0-5.5,0-8.3c-11.9,1.8-19.3,9.8-19.3,20.2
	c0,10.4,7.3,16.8,19.3,21.4c0-3.4,0-6.7,0-10.1C143.5,386.5,140.5,383.1,140.5,377.3z"/>
<rect x="149.9" y="349.5" fill="#E67E22" width="1.8" height="106.5"/>
<path fill="#00AEEF" d="M428.1,374.3c0-6.7,2.1-11.9,3.7-14.4l-8-2.8c-1.8,3.4-3.7,9.2-3.7,16.8c0,1.8,0,3.7,0.3,5.2
	c2.8,0,5.5,0,8.3,0C428.4,377.6,428.1,376.1,428.1,374.3z"/>
<path fill="#00AEEF" d="M478,354.1c-11,0-17.4,6.4-22.3,19.3c-0.9,2.1-1.5,4-2.4,5.5c3.4,0,6.7,0,10.1,0c0-0.3,0.3-0.3,0.3-0.6
	c4-10.4,8-14.4,15-14.4c7.3,0,12.5,5.5,12.9,15c2.8,0,5.2,0,8,0C499.1,362,489.3,354.1,478,354.1z"/>
<rect x="411.3" y="378.6" fill="#00AEEF" width="105.9" height="1.8"/>
<path fill="#E67E22" d="M114,389.3v7.3h-13.8v11.9H114v7.3l16.5-13.5L114,389.3z"/>
<path fill="#00AEEF" d="M442.5,335.4h6.7v12.2h10.7v-12.2h6.7l-11.9-14.7L442.5,335.4z"/>
</svg>
