<?xml version="1.0" encoding="utf-8"?>
<!-- Generator: Adobe Illustrator 18.0.0, SVG Export Plug-In . SVG Version: 6.00 Build 0)  -->
<!DOCTYPE svg PUBLIC "-//W3C//DTD SVG 1.1//EN" "http://www.w3.org/Graphics/SVG/1.1/DTD/svg11.dtd">
<svg version="1.1" id="Layer_1" xmlns="http://www.w3.org/2000/svg" xmlns:xlink="http://www.w3.org/1999/xlink" x="0px" y="0px"
	 viewBox="0 0 259.8 97.9" enable-background="new 0 0 259.8 97.9" xml:space="preserve">
<polygon fill="#2B3990" points="316.1,211.6 314.7,211.2 319.2,210.2 "/>
<path fill="none" stroke="#000000" stroke-miterlimit="10" d="M0.7,74.9"/>
<g>
	<path fill="#3B97D3" d="M94.4,79.6c0,3-18.4,5.3-39.8,5.3s-40.5-2.3-40.5-5.3s18.8-5.3,40.2-5.3S94.4,76.7,94.4,79.6z"/>
	<path fill="#FFFFFF" d="M61,69.5h-3.4v-6.2c0-0.7-0.6-1.2-1.2-1.2h-5c-0.7,0-1.2,0.6-1.2,1.2v6.2h-3.4c-1.3,0-1.9,0.9-1.2,2
		l7.2,7.1c0.7,1.1,1.8,1.1,2.4,0l7.2-7.1C62.9,70.4,62.4,69.5,61,69.5z"/>
	<path fill="#FFFFFF" d="M85.8,78.4c0,1.4-12.1,3.1-31.4,3.1s-32.5-1.7-32.5-3.1s13.2-2.6,32.5-2.6S85.8,77,85.8,78.4z"/>
	<path fill="#3B97D3" d="M55.1,16.9L39.9,29.6l-4.4,0.2l-4.5,3.7c-1,0.8-1.2,2.2-0.4,3.1l6.1,7.3c0.8,0.9,2.2,1,3.1,0.1l22.3-18.7
		c1-0.8,1.2-2.2,0.4-3.1L58.2,17C57.5,16.1,56,16.1,55.1,16.9z"/>
	<path fill="#FFFFFF" d="M32.7,41.9l27.6-23.2l4.8,5.7L37.5,47.6L32.7,41.9z"/>
	<path fill="#3B97D3" d="M32.5,43.4L62.8,18c1-0.8,2.4-0.8,3.1,0.1L77,35.8c0.8,0.9,0.6,2.3-0.4,3.1L50.8,60.6
		c-1,0.8-2.4,0.8-3.1-0.1l-15.5-14C31.4,45.6,31.5,44.2,32.5,43.4z"/>
	<path fill="#3B97D3" d="M59.6,69.8h-2.8v-5c0-0.6-0.4-1-1-1h-4c-0.6,0-1,0.4-1,1v5h-2.8c-1.1,0-1.5,0.7-1,1.6l5.8,5.7
		c0.5,0.9,1.4,0.9,2,0l5.8-5.7C61.2,70.5,60.7,69.8,59.6,69.8z"/>
</g>
<text transform="matrix(1 0 0 1 112.3937 57.6792)" fill="#BCBEC0" font-family="'MyriadPro-Bold'" font-size="30">Syncon.me</text>
</svg>
