<?xml version="1.0" encoding="utf-8"?>
<!-- Generator: Adobe Illustrator 18.0.0, SVG Export Plug-In . SVG Version: 6.00 Build 0)  -->
<!DOCTYPE svg PUBLIC "-//W3C//DTD SVG 1.1//EN" "http://www.w3.org/Graphics/SVG/1.1/DTD/svg11.dtd">
<svg version="1.1" id="Layer_1" xmlns="http://www.w3.org/2000/svg" xmlns:xlink="http://www.w3.org/1999/xlink" x="0px" y="0px"
	 viewBox="0 0 179.3 40" enable-background="new 0 0 179.3 40" xml:space="preserve">
<g>
	<path fill="#ADADAD" d="M42,11.9h20.4c0.8,0,1.5,0.7,1.5,1.5v13.8c0,0.8-0.7,1.5-1.5,1.5H42c-0.8,0-1.5-0.7-1.5-1.5V13.4
		C40.5,12.6,41.2,11.9,42,11.9z"/>
	<path fill="#FFFFFF" d="M44.3,17.7L42,22.8h2.8l0.3-0.8h0.8l0.3,0.8h3v-0.6l0.3,0.6h1.6l0.3-0.6v0.6h6.3l0.8-0.8l0.7,0.8l3.2,0
		l-2.3-2.5l2.3-2.6h-3.2l-0.7,0.8l-0.7-0.8h-6.9l-0.6,1.3l-0.6-1.3h-2.7v0.6l-0.3-0.6C46.6,17.7,44.3,17.7,44.3,17.7z M44.8,18.5
		h1.3l1.5,3.5v-3.5h1.5l1.2,2.5l1.1-2.5h1.5v3.7H52l0-2.9l-1.3,2.9h-0.8l-1.3-2.9v2.9h-1.8l-0.3-0.8h-1.9l-0.3,0.8h-1
		C43.2,22.1,44.8,18.5,44.8,18.5z M53.7,18.5h3.6l1.1,1.2l1.1-1.2h1.1L59,20.3l1.7,1.8h-1.2l-1.1-1.2l-1.1,1.2h-3.6V18.5z
		 M45.5,19.1l-0.6,1.5h1.2L45.5,19.1z M54.6,19.2v0.7h2v0.7h-2v0.7h2.2l1-1.1l-1-1.1L54.6,19.2L54.6,19.2z"/>
</g>
<g>
	<path fill="#ADADAD" d="M163.9,20.3c0,4.6-3.7,8.3-8.3,8.3s-8.3-3.7-8.3-8.3s3.7-8.3,8.3-8.3S163.9,15.7,163.9,20.3z"/>
	<path fill="#6C6C6C" d="M165.5,12c-1.9,0-3.6,0.6-5,1.7l0,0c0.3,0.3,0.6,0.4,0.8,0.8l-1.7,0c-0.3,0.3-0.5,0.6-0.8,0.9h3.1
		c0.2,0.3,0.4,0.5,0.6,0.8h-4.2c-0.2,0.3-0.3,0.5-0.4,0.8h5.2c0.1,0.3,0.3,0.5,0.4,0.8h-5.8c-0.1,0.3-0.2,0.6-0.2,0.9h6.3
		c0.1,0.3,0.1,0.6,0.1,0.8h-6.6c0,0.3,0,0.6,0,0.8h6.6c0,0.3,0,0.6-0.1,0.8h-6.6c0,0.3,0.1,0.6,0.1,0.8h6.3
		c-0.1,0.3-0.1,0.5-0.2,0.8h-5.8c0.1,0.3,0.2,0.6,0.3,0.8h5.2c-0.1,0.3-0.3,0.5-0.5,0.8h-4.3c0.2,0.3,0.4,0.6,0.6,0.8l3.1,0
		c-0.3,0.3-0.6,0.5-0.9,0.8c0,0-0.5,0-1.5,0c1.5,1.6,3.6,2.5,6,2.5c4.6,0,8.3-3.7,8.3-8.3S170.1,12,165.5,12z"/>
</g>
<g>
	<path fill="#6C6C6C" d="M127.7,20.3c0,4.6-3.7,8.3-8.3,8.3c-4.6,0-8.3-3.7-8.3-8.3s3.7-8.3,8.3-8.3C124,12,127.7,15.7,127.7,20.3z"
		/>
	<path fill="#B8B8B8" d="M129.4,12c-1.9,0-3.6,0.6-5,1.7l0,0c0.3,0.3,0.6,0.4,0.8,0.8l-1.7,0c-0.3,0.3-0.5,0.6-0.8,0.9h3.1
		c0.2,0.3,0.4,0.5,0.6,0.8h-4.2c-0.2,0.3-0.3,0.5-0.4,0.8h5.2c0.1,0.3,0.3,0.5,0.4,0.8h-5.8c-0.1,0.3-0.2,0.6-0.2,0.9h6.3
		c0.1,0.3,0.1,0.6,0.1,0.8h-6.6c0,0.3,0,0.6,0,0.8h6.6c0,0.3,0,0.6-0.1,0.8h-6.6c0,0.3,0.1,0.6,0.1,0.8h6.3
		c-0.1,0.3-0.1,0.5-0.2,0.8h-5.8c0.1,0.3,0.2,0.6,0.3,0.8h5.2c-0.1,0.3-0.3,0.5-0.5,0.8h-4.3c0.2,0.3,0.4,0.6,0.6,0.8l3.1,0
		c-0.3,0.3-0.6,0.5-0.9,0.8c0,0-0.5,0-1.5,0c1.5,1.6,3.6,2.5,6,2.5c4.6,0,8.3-3.7,8.3-8.3S134,12,129.4,12z"/>
</g>
<g>
	<path fill="#ADADAD" d="M26.6,15.3c-0.3-0.7-0.9-1.2-1.5-1.6l-0.2-0.1c0.3,0.6,0.5,1.5,0.5,2.4c0,2.2-0.9,4-2.8,5.4
		c-1.9,1.4-4.5,2-7.9,2h-0.8c-0.6,0-1.2,0.5-1.3,1l-1,3.7c-0.1,0.6-0.7,1-1.3,1H8.7l-0.2,1c-0.1,0.6,0.2,1,0.8,1h2.8
		c0.6,0,1.2-0.5,1.3-1l1-4c0.1-0.6,0.7-1,1.3-1h0.8c3.4,0,6-0.7,7.9-2c1.9-1.4,2.8-3.2,2.8-5.4C27.1,16.8,27,16,26.6,15.3z"/>
	<path fill="#3A3A3A" d="M23.1,12c-0.3-0.7-0.9-1.2-1.5-1.6c-0.7-0.4-1.5-0.7-2.4-0.9c-0.9-0.2-2-0.2-3.3-0.3l-5.8,0
		c-0.6,0-1.2,0.5-1.3,1L5,26.9c-0.1,0.6,0.2,1,0.8,1h2.8c0.6,0,1.2-0.5,1.3-1l1-4c0.1-0.6,0.7-1,1.3-1H13c3.4,0,6-0.7,7.9-2
		c1.9-1.4,2.8-3.2,2.8-5.4C23.7,13.5,23.5,12.7,23.1,12 M17.2,17.4c-0.8,0.6-2,0.9-3.5,0.9H13c-0.6,0-1-0.5-0.8-1l0.8-3.5
		c0.1-0.6,0.7-1,1.3-1l0.9,0c1.1,0,1.9,0.2,2.4,0.5c0.5,0.3,0.8,0.9,0.8,1.6C18.4,16,18,16.8,17.2,17.4"/>
</g>
<g>
	<g>
		<g>
			<path fill="#969696" d="M85.9,16.1l-1.3,8.3h2.1l1.3-8.3C88,16.1,85.9,16.1,85.9,16.1z M92.3,19.5c-0.7-0.4-1.2-0.6-1.2-1
				c0-0.3,0.4-0.7,1.2-0.7c0.7,0,1.2,0.1,1.6,0.3l0.2,0.1l0.3-1.7c-0.4-0.2-1.1-0.3-1.9-0.3c-2.1,0-3.6,1.1-3.6,2.7
				c0,1.2,1.1,1.8,1.9,2.2c0.8,0.4,1.1,0.7,1.1,1c0,0.5-0.7,0.8-1.3,0.8c-0.9,0-1.3-0.1-2-0.4l-0.3-0.1L88,24
				c0.5,0.2,1.4,0.4,2.4,0.4c2.2,0,3.7-1.1,3.7-2.8C94.1,20.8,93.5,20.1,92.3,19.5z M99.9,16.2h-1.7c-0.5,0-0.9,0.1-1.1,0.7
				l-3.2,7.6h2.2l0.6-1.6h2.5l0.3,1.7h2L99.9,16.2z M97.4,21.1c0,0,0.9-2.7,0.9-2.7l0.7,2.7C98.9,21.1,97.8,21.1,97.4,21.1z
				 M82.8,16.1l-2.1,5.6l-0.2-1.1c-0.4-1.3-1.6-2.7-3-3.4l1.9,7.1h2.3l3.4-8.3L82.8,16.1L82.8,16.1z"/>
		</g>
	</g>
	<path fill="#C6C6C6" d="M79.7,17.2c-0.2-0.6-0.7-1.1-1.4-1.1H75l0,0.2c2.6,0.6,4.8,2.6,5.5,4.4L79.7,17.2z"/>
</g>
</svg>
