<?xml version="1.0" encoding="utf-8"?>
<!-- Generator: Adobe Illustrator 18.0.0, SVG Export Plug-In . SVG Version: 6.00 Build 0)  -->
<!DOCTYPE svg PUBLIC "-//W3C//DTD SVG 1.1//EN" "http://www.w3.org/Graphics/SVG/1.1/DTD/svg11.dtd">
<svg version="1.1" id="Layer_1" xmlns="http://www.w3.org/2000/svg" xmlns:xlink="http://www.w3.org/1999/xlink" x="0px" y="0px"
	 viewBox="0 0 96.6 42.9" enable-background="new 0 0 96.6 42.9" xml:space="preserve">
<g>
	<path fill-rule="evenodd" clip-rule="evenodd" fill="#1C7FAD" d="M78.8,14.2c-2.5,0-4.4,0.7-5.9,0.9l-0.5,3.7c0.7-0.4,3.1-1,5-1.1
		c1.9-0.1,3.1,0.4,2.7,2c-5.8,0-9.7,1.2-10.4,4.9c-1.1,6.4,5.9,6.2,8.7,3.4l-0.3,1.5h5.1l2.2-10.2C86.4,15.3,82.4,14.2,78.8,14.2z
		 M79.2,24.7c-0.3,1.4-1.4,2-2.7,2c-1.1,0.1-2.2-0.9-1.4-2.1c0.6-1,2.2-1.2,3.1-1.2c0.4,0,0.9,0,1.3,0
		C79.3,23.8,79.3,24.2,79.2,24.7z"/>
	<polygon fill-rule="evenodd" clip-rule="evenodd" fill="#1C7FAD" points="89.8,10.5 85.6,30.1 90.8,30.1 95.1,10.5 89.8,10.5 
		89.8,10.5 	"/>
	<path fill-rule="evenodd" clip-rule="evenodd" fill="#1C7FAD" d="M65.9,10.6h-9.6l-4.2,19.5h5.6l1.4-6.5H63c3.9,0,7.1-2.4,8-6.4
		C71.9,12.6,68.6,10.6,65.9,10.6z M65.7,17.2c-0.3,1.5-1.8,2.7-3.3,2.7h-2.6l1.1-5.3h2.7C65.2,14.5,66,15.7,65.7,17.2z"/>
	<path fill-rule="evenodd" clip-rule="evenodd" fill="#1B5B80" d="M28.8,14.2c-2.4,0-4.3,0.7-5.8,0.9l-0.5,3.7c0.7-0.4,3-1,4.9-1.1
		c1.9-0.1,3,0.4,2.7,2c-5.7,0-9.5,1.2-10.3,4.9c-1.1,6.4,5.8,6.2,8.5,3.4L28,29.8h5.1l2.2-10.2C36.3,15.3,32.3,14.2,28.8,14.2z
		 M29.2,24.7c-0.3,1.4-1.4,2-2.7,2c-1.1,0.1-2.1-0.9-1.4-2.1c0.6-1,2.1-1.2,3-1.2c0.5,0,0.8,0,1.3,0C29.3,23.8,29.2,24.2,29.2,24.7z
		"/>
	<polygon fill-rule="evenodd" clip-rule="evenodd" fill="#1B5B80" points="37.6,14.3 42.7,14.3 43.6,23.4 48.6,14.3 53.9,14.3 
		41.7,36.1 35.9,36.1 39.7,29.7 37.6,14.3 37.6,14.3 	"/>
	<path fill-rule="evenodd" clip-rule="evenodd" fill="#1B5B80" d="M16,10.6H6.4L2.2,30.1h5.6l1.4-6.5h4c3.8,0,7.1-2.4,7.9-6.4
		C22.1,12.6,18.8,10.6,16,10.6z M15.8,17.2c-0.3,1.5-1.8,2.7-3.2,2.7H10l1.2-5.3h2.8C15.3,14.5,16.2,15.7,15.8,17.2z"/>
</g>
</svg>
