<?xml version="1.0" encoding="utf-8"?>
<!-- Generator: Adobe Illustrator 18.0.0, SVG Export Plug-In . SVG Version: 6.00 Build 0)  -->
<!DOCTYPE svg PUBLIC "-//W3C//DTD SVG 1.1//EN" "http://www.w3.org/Graphics/SVG/1.1/DTD/svg11.dtd">
<svg version="1.1" id="Layer_1" xmlns="http://www.w3.org/2000/svg" xmlns:xlink="http://www.w3.org/1999/xlink" x="0px" y="0px"
	 viewBox="-16 -16 128 128" enable-background="new -16 -16 128 128" xml:space="preserve">
<g>
	<path fill="#BDC3C7" d="M51.6-1v-9.4c0,0,0.1-0.8-0.5-1c-0.6-0.2-1.2,0.2-1.2,0.2l-28,16.5c0,0-0.6,0.4-0.6,0.9c0,0.6,0.6,1,0.6,1
		l28.1,16.6c0,0,0.5,0.3,1.1,0c0.5-0.3,0.5-0.9,0.5-0.9v-8.8c17,1.8,30.3,16.2,30.3,33.7c0,18.7-15.2,33.9-33.9,33.9
		S14.1,66.5,14.1,47.8c0-5.3,1.2-10.4,3.4-14.8c0,0,2.8-6.3-3-9.2S5.2,24,4.4,25.4C1,32.1-1,39.7-1,47.8c0,27,21.9,49,49,49
		c27,0,49-21.9,49-49C97,22,76.9,0.8,51.6-1z"/>
</g>
</svg>
