<?xml version="1.0" encoding="utf-8"?>
<!-- Generator: Adobe Illustrator 18.0.0, SVG Export Plug-In . SVG Version: 6.00 Build 0)  -->
<!DOCTYPE svg PUBLIC "-//W3C//DTD SVG 1.1//EN" "http://www.w3.org/Graphics/SVG/1.1/DTD/svg11.dtd">
<svg version="1.1" id="Layer_1" xmlns="http://www.w3.org/2000/svg" xmlns:xlink="http://www.w3.org/1999/xlink" x="0px" y="0px"
	 viewBox="286 376 40 40" enable-background="new 286 376 40 40" xml:space="preserve">
<g>
	<g>
		<line fill="none" stroke="#3498DB" stroke-width="3" stroke-miterlimit="10" x1="305.9" y1="381.4" x2="305.9" y2="386.2"/>
		<line fill="none" stroke="#3498DB" stroke-width="3" stroke-miterlimit="10" x1="320.3" y1="395.8" x2="315.5" y2="395.8"/>
		<line fill="none" stroke="#3498DB" stroke-width="3" stroke-miterlimit="10" x1="296.4" y1="395.8" x2="291.6" y2="395.8"/>
		<line fill="none" stroke="#3498DB" stroke-width="3" stroke-miterlimit="10" x1="299.1" y1="389" x2="295.8" y2="385.6"/>
		<line fill="none" stroke="#3498DB" stroke-width="3" stroke-miterlimit="10" x1="305.4" y1="396" x2="316.1" y2="385.6"/>
	</g>
	<path fill="none" stroke="#3498DB" stroke-width="3" stroke-miterlimit="10" d="M319.7,384.2c2.7,3.1,4.2,7.2,4.2,11.6
		c0,9.9-8.1,18-18,18c-9.9,0-18-8.1-18-18c0-9.9,8.1-18,18-18c4.4,0,8.5,1.6,11.6,4.3"/>
	<path fill="none" stroke="#3498DB" stroke-width="3" stroke-miterlimit="10" d="M313,406.9c-1.5-2.4-4-3.9-7.1-3.9
		c-3,0-5.6,1.6-7.1,3.9"/>
</g>
</svg>
