<?xml version="1.0" encoding="utf-8"?>
<!-- Generator: Adobe Illustrator 18.0.0, SVG Export Plug-In . SVG Version: 6.00 Build 0)  -->
<!DOCTYPE svg PUBLIC "-//W3C//DTD SVG 1.1//EN" "http://www.w3.org/Graphics/SVG/1.1/DTD/svg11.dtd">
<svg version="1.1" id="Layer_1" xmlns="http://www.w3.org/2000/svg" xmlns:xlink="http://www.w3.org/1999/xlink" x="0px" y="0px"
	 viewBox="0 0 100.2 83" enable-background="new 0 0 100.2 83" xml:space="preserve">
<path fill="#6BB9F0" d="M86.8,28.9C86.9,28,87,27,87,26.1c0-10.5-8.5-19-19-19c-3.7,0-7.1,1.1-10,2.9c-4.6-6-11.8-9.9-19.9-9.9
	c-13.8,0-24.9,11.2-24.9,24.9c0,1.3,0.1,2.6,0.3,3.9C5.8,31.3,0.2,38.5,0.2,47c0,10.5,8.5,19,19,19H81c10.5,0,19-8.5,19-19
	C100,38.5,94.4,31.4,86.8,28.9z"/>
<path fill="#89C4F4" d="M21.1,53h57.8v30H21.1C21.1,83,21.1,53,21.1,53z"/>
<path fill="#6BB9F0" d="M34,69h32L52,83H21.1l0-1C21.1,82,34,69,34,69z"/>
<path fill="#6BC9F2" d="M68,42l10.9,11H21.1L32,42C32,42,68,42,68,42z"/>
<path fill="#EFEFEF" d="M29,26h42l0,8v16H29C29,50,29,26,29,26z"/>
<g>
	<circle fill="#2880BA" cx="65.5" cy="68" r="3"/>
	<circle fill="#2880BA" cx="34.5" cy="68" r="3"/>
</g>
<path fill="#C2C5C5" d="M39,33v2h22v-2H39z M39,39h22v-2H39V39z M39,43h22v-2H39V43z"/>
<path fill="#DADADB" d="M29,50v-2h42v2C71,50,29,50,29,50z"/>
<path fill="#EFEFEF" d="M36,66h28c1.1,0,2,0.9,2,2s-0.9,2-2,2H36c-1.1,0-2-0.9-2-2S34.9,66,36,66z"/>
<path fill="#C2C5C5" d="M66,68H34c0,1.1,0.9,2,2,2h28C65.1,70,66,69.1,66,68z"/>
</svg>
