<?xml version="1.0" encoding="utf-8"?>
<!-- Generator: Adobe Illustrator 18.0.0, SVG Export Plug-In . SVG Version: 6.00 Build 0)  -->
<!DOCTYPE svg PUBLIC "-//W3C//DTD SVG 1.1//EN" "http://www.w3.org/Graphics/SVG/1.1/DTD/svg11.dtd">
<svg version="1.1" id="Layer_1" xmlns:sketch="http://www.bohemiancoding.com/sketch/ns"
	 xmlns="http://www.w3.org/2000/svg" xmlns:xlink="http://www.w3.org/1999/xlink" x="0px" y="0px" viewBox="0 0 223 281"
	 enable-background="new 0 0 223 281" xml:space="preserve">
<title>teleport 2</title>
<desc>Created with Sketch.</desc>
<path id="Shape" sketch:type="MSShapeGroup" fill="#D1D3D4" stroke="#E6E7E8" stroke-width="2" d="M91.8,112.4l54.3-20.9"/>
<path id="Shape_1_" sketch:type="MSShapeGroup" fill="#D1D3D4" stroke="#E6E7E8" stroke-width="2" d="M151.8,70.4L122.7,35"/>
<path id="Shape_2_" sketch:type="MSShapeGroup" fill="#D1D3D4" stroke="#E6E7E8" stroke-width="2" d="M88.7,130.4l32.1,25.5"/>
<path id="Shape_3_" sketch:type="MSShapeGroup" fill="#FFFFFF" d="M48.9,152.8c-0.2,0-0.3,0-0.3,0.1c-0.1,0.1-0.1,0.2-0.1,0.3v0.4
	h0.9v-0.4c0-0.2,0-0.3-0.1-0.3C49.2,152.9,49.1,152.8,48.9,152.8L48.9,152.8z"/>
<g>
	<path id="Shape_4_" sketch:type="MSShapeGroup" fill="#FCD977" d="M138.7,217.1h-37.2l-6.6-5.5H84c-2.4,0-4.4,2-4.4,4.4v19.7
		c0,2.4,2,4.4,4.4,4.4h54.7c2.4,0,4.4-2,4.4-4.4v-14.2C143.1,219,141.2,217.1,138.7,217.1L138.7,217.1z"/>
</g>
<linearGradient id="Shape_5_" gradientUnits="userSpaceOnUse" x1="-192.6293" y1="535.8707" x2="-192.6293" y2="534.8707" gradientTransform="matrix(222.8 0 0 -225.8 43029.1992 120999.6016)">
	<stop  offset="0" style="stop-color:#FFFFFF;stop-opacity:0.3"/>
	<stop  offset="0.2295" style="stop-color:#FCFEFF;stop-opacity:0.2771"/>
	<stop  offset="0.3728" style="stop-color:#F4FBFD;stop-opacity:0.2627"/>
	<stop  offset="0.4925" style="stop-color:#E5F5FB;stop-opacity:0.2507"/>
	<stop  offset="0.5993" style="stop-color:#D1EDF9;stop-opacity:0.2401"/>
	<stop  offset="0.6974" style="stop-color:#B6E2F5;stop-opacity:0.2303"/>
	<stop  offset="0.7892" style="stop-color:#95D5F0;stop-opacity:0.2211"/>
	<stop  offset="0.8761" style="stop-color:#6EC6EB;stop-opacity:0.2124"/>
	<stop  offset="0.957" style="stop-color:#42B5E5;stop-opacity:0.2043"/>
	<stop  offset="1" style="stop-color:#27AAE1;stop-opacity:0.2"/>
</linearGradient>
<path id="Shape_6_" sketch:type="MSShapeGroup" fill="url(#Shape_5_)" d="M147.5,225.8H75.3L0,0h222.8L147.5,225.8z"/>
<path id="Shape_7_" sketch:type="MSShapeGroup" fill="#FFFFFF" d="M74.2,222.5h74.3l-3.3,15.3H77.5L74.2,222.5L74.2,222.5z"/>
<path id="Shape_8_" sketch:type="MSShapeGroup" fill="#EBEEEE" d="M75.3,225.8h72.2v15.3H75.3V225.8L75.3,225.8z"/>
<path id="Shape_9_" sketch:type="MSShapeGroup" fill="#EFC84A" d="M74.2,229.1h74.4c2.4,0,4.4,2,4.4,4.4l-5.5,42.7
	c0,2.4-2,4.4-4.4,4.4H79.7c-2.4,0-4.4-2-4.4-4.4l-5.5-42.7C69.8,231.1,71.8,229.1,74.2,229.1L74.2,229.1z"/>
<path id="Shape_10_" sketch:type="MSShapeGroup" fill="#D8B442" d="M111.4,236.7c-9.7,0-17.5,7.8-17.5,17.5s7.8,17.5,17.5,17.5
	s17.5-7.8,17.5-17.5S121.1,236.7,111.4,236.7L111.4,236.7z M111.4,268.5c-7.9,0-14.2-6.4-14.2-14.2c0-7.9,6.4-14.2,14.2-14.2
	s14.2,6.4,14.2,14.2S119.2,268.5,111.4,268.5L111.4,268.5z M112.5,247.3c-0.6-1-1.6-1-2.2,0l-6.3,6.3c-0.6,1-0.1,1.8,1.1,1.8h3v5.5
	c0,0.6,0.5,1.1,1.1,1.1h4.4c0.6,0,1.1-0.5,1.1-1.1v-5.5h3c1.2,0,1.7-0.8,1.1-1.8L112.5,247.3L112.5,247.3z"/>
<g id="Dropbox" transform="translate(116.000000, 148.000000)" sketch:type="MSShapeGroup">
	<path id="Shape_11_" fill="#3498DB" fill-opacity="0.5" d="M18.1,0.5C28,0.5,36,8.5,36,18.4s-8,17.9-17.9,17.9s-17.9-8-17.9-17.9
		S8.2,0.5,18.1,0.5L18.1,0.5z"/>
	<path id="Shape_12_" fill="#FFFFFF" d="M18.1,1.5c9.4,0,17,7.6,17,17s-7.6,17-17,17s-17-7.6-17-17C1.2,9,8.7,1.5,18.1,1.5L18.1,1.5
		z"/>
	<path id="Shape_13_" fill="#3498DB" d="M18.1,2.4c8.8,0,16,7.2,16,16s-7.2,16-16,16s-16-7.2-16-16S9.3,2.4,18.1,2.4L18.1,2.4z"/>
	<path id="Shape_14_" fill="#FFFFFF" d="M8.1,19.4l5.9,3.7l4.1-3.3l-5.9-3.5L8.1,19.4L8.1,19.4z M14,9.4l-5.9,3.7l4.1,3.1l5.9-3.5
		L14,9.4L14,9.4z M28.1,13.1l-5.9-3.7l-4.1,3.3l5.9,3.5C24,16.3,28.1,13.1,28.1,13.1L28.1,13.1z M18.1,19.8l4.1,3.3l5.9-3.7L24,16.3
		L18.1,19.8L18.1,19.8z M18.1,22.4l-4.2,2.9l-1.8-1v2.1l6,3l6-3v-2.1l-1.8,1L18.1,22.4L18.1,22.4z"/>
</g>
<g id="Soundcloud">
	<path id="Shape_15_" fill="#E67E22" fill-opacity="0.5" d="M74.1,99.6c10.6,0,19.2,8.6,19.2,19.2c0,10.6-8.6,19.2-19.2,19.2
		S55,129.4,55,118.8C55,108.2,63.5,99.6,74.1,99.6L74.1,99.6z"/>
	<path id="Shape_16_" fill="#FFFFFF" d="M74.1,100.7c10,0,18.1,8.1,18.1,18.1s-8.1,18.1-18.1,18.1S56,128.8,56,118.8
		S64.1,100.7,74.1,100.7L74.1,100.7z"/>
	<path fill="#E67E22" d="M74.1,101.7c9.5,0,17.1,7.7,17.1,17.1c0,9.5-7.7,17.1-17.1,17.1S57,128.3,57,118.8
		C57,109.4,64.7,101.7,74.1,101.7L74.1,101.7z"/>
	<path id="Soundcloud_logo" fill="#FFFFFF" d="M66.5,124h1.9v-12c-0.7,0.2-1.4,0.6-1.9,1.1C66.5,113,66.5,124,66.5,124z M62.7,115.8
		v8.1l0.1,0h1.8v-8.1h-1.8C62.8,115.8,62.7,115.8,62.7,115.8z M58.8,119.9c0,1.5,0.8,2.8,1.9,3.5v-6.9
		C59.6,117.1,58.8,118.4,58.8,119.9z M70.3,124h1.9v-11.5c-0.6-0.4-1.2-0.6-1.9-0.7C70.3,111.8,70.3,124,70.3,124z M85.4,115.8h-1.1
		c0.1-0.3,0.1-0.7,0.1-1c0-3.4-2.6-6.1-5.9-6.1c-1.8,0-3.3,0.8-4.4,2.1V124h11.3c2.2,0,3.9-1.8,3.9-4.1
		C89.4,117.6,87.6,115.8,85.4,115.8z"/>
</g>
<g id="Vimeo">
	<circle id="Oval" fill="#2ECC71" fill-opacity="0.5" cx="163.6" cy="84.8" r="19.5"/>
	<circle id="Oval_1_" fill="#FFFFFF" cx="163.6" cy="84.8" r="18.5"/>
	<circle id="Oval_2_" fill="#2ECC71" cx="163.6" cy="84.8" r="17.5"/>
	<path id="Vimeo-logo" fill="#FFFFFF" d="M152.2,80c2-1.6,4.9-5.1,7-5.1c2.3,0,2.8,2.6,3,5c0.3,2.4,1.1,7.6,2.4,7.6
		c1.1,0,3.9-4.6,3.8-6.4c-0.1-1.8-2.1-1.5-3.1-1c1-3.5,3.3-5.4,6.1-5.4c2.9,0,3.6,2,3.6,4.5c0,3.9-7.8,15.5-12.4,15.5
		c-2.9,0-3.6-4.3-4.3-6.4c-0.6-2.1-1.8-7.6-3.1-8c-0.5-0.1-2,1.1-2,1.1L152.2,80L152.2,80z"/>
</g>
<g id="Youtube" transform="translate(97.000000, 8.000000)" sketch:type="MSShapeGroup">
	<path id="Shape_18_" fill="#D35400" fill-opacity="0.5" d="M16.2,0.3c8.4,0,15.3,6.8,15.3,15.3s-6.8,15.3-15.3,15.3
		S0.9,24,0.9,15.5S7.8,0.3,16.2,0.3L16.2,0.3z"/>
	<path id="Shape_19_" fill="#FFFFFF" d="M16.2,1.1c8,0,14.5,6.5,14.5,14.5S24.2,30,16.2,30S1.7,23.5,1.7,15.5S8.2,1.1,16.2,1.1
		L16.2,1.1z"/>
	<path id="Shape_20_" fill="#D35400" d="M16.2,1.9c7.5,0,13.6,6.1,13.6,13.6s-6.1,13.6-13.6,13.6S2.6,23,2.6,15.5S8.7,1.9,16.2,1.9
		L16.2,1.9z"/>
	<path id="Shape_21_" fill="#FFFFFF" d="M15.9,13c0.4,0,0.8-0.1,1-0.3c0.2-0.2,0.4-0.5,0.4-0.8V9.8c0-0.3-0.1-0.6-0.4-0.7
		c-0.3-0.2-0.6-0.3-1-0.3s-0.8,0.1-1,0.3c-0.3,0.2-0.4,0.4-0.4,0.7v2.1c0,0.3,0.1,0.6,0.4,0.8C15.1,12.8,15.4,13,15.9,13L15.9,13z
		 M15.4,9.8c0-0.1,0-0.1,0.1-0.2c0.1,0,0.2-0.1,0.3-0.1c0.1,0,0.3,0,0.3,0.1c0.1,0.1,0.1,0.1,0.1,0.2v2c0,0.1,0,0.2-0.1,0.2
		c-0.1,0.1-0.2,0.1-0.3,0.1c-0.1,0-0.2,0-0.3-0.1s-0.1-0.1-0.1-0.2V9.8L15.4,9.8z M18.7,13c0.2,0,0.3-0.1,0.5-0.2
		c0.2-0.1,0.3-0.2,0.5-0.4v0.5h0.8V8.8h-0.8v3.1c-0.1,0.1-0.2,0.2-0.2,0.2c-0.1,0.1-0.2,0.1-0.2,0.1c-0.1,0-0.1,0-0.2-0.1
		c0,0-0.1-0.1-0.1-0.2V8.7h-0.8v3.5c0,0.2,0,0.4,0.1,0.6C18.4,12.9,18.5,13,18.7,13L18.7,13z M21.1,14.7h-9.7
		c-1.5,0-2.8,1.2-2.8,2.7v2.3c0,1.5,1.3,2.7,2.8,2.7h9.7c1.5,0,2.8-1.2,2.8-2.7v-2.3C23.9,15.9,22.6,14.7,21.1,14.7L21.1,14.7z
		 M12.8,17h-0.9v3.6h-0.8V17h-0.9v-0.6h2.6V17L12.8,17z M15.3,20.6h-0.9v-0.4c-0.2,0.1-0.3,0.2-0.5,0.3c-0.2,0.1-0.4,0.1-0.5,0.1
		c-0.2,0-0.4-0.1-0.5-0.2c-0.1-0.1-0.2-0.2-0.2-0.5v-2.8h0.9v2.6c0,0.1,0,0.1,0.1,0.2c0,0,0.1,0.1,0.2,0.1c0.1,0,0.2,0,0.3-0.1
		c0.1,0,0.2-0.1,0.3-0.2v-2.6h0.9C15.3,17.2,15.3,20.6,15.3,20.6L15.3,20.6z M18.7,20c0,0.2-0.1,0.4-0.2,0.5s-0.3,0.2-0.6,0.2
		c-0.2,0-0.3,0-0.5-0.1c-0.1,0-0.3-0.1-0.4-0.2v0.2h-0.9v-4.2H17v1.4c0.1-0.1,0.2-0.2,0.4-0.2c0.1-0.1,0.3-0.1,0.4-0.1
		c0.3,0,0.5,0.1,0.6,0.2c0.1,0.1,0.2,0.3,0.2,0.6C18.7,18.2,18.7,20,18.7,20L18.7,20z M22.2,19h-1.7v0.6c0,0.2,0,0.3,0.1,0.4
		s0.2,0.1,0.3,0.1s0.2,0,0.3-0.1c0.1-0.1,0.1-0.2,0.1-0.4v-0.1h0.9v0.2c0,0.3-0.1,0.6-0.3,0.7c-0.2,0.2-0.5,0.3-1,0.3
		c-0.4,0-0.7-0.1-0.9-0.3c-0.2-0.2-0.3-0.4-0.3-0.7v-1.5c0-0.3,0.1-0.5,0.4-0.7c0.2-0.2,0.6-0.3,0.9-0.3c0.4,0,0.7,0.1,0.9,0.2
		c0.2,0.2,0.3,0.4,0.3,0.7V19L22.2,19z M12.3,13h1v-2.5L14.5,7h-1l-0.6,2.4h-0.1L12.1,7h-1l1.2,3.6V13L12.3,13z M17.5,18h-0.2
		l-0.2,0.1V20c0.1,0.1,0.1,0.1,0.2,0.1h0.2c0.1,0,0.2,0,0.2-0.1c0.1,0,0.1-0.1,0.1-0.2v-1.6c0-0.1,0-0.2-0.1-0.2H17.5L17.5,18z"/>
</g>
</svg>
