<?xml version="1.0" encoding="utf-8"?>
<!-- Generator: Adobe Illustrator 18.0.0, SVG Export Plug-In . SVG Version: 6.00 Build 0)  -->
<!DOCTYPE svg PUBLIC "-//W3C//DTD SVG 1.1//EN" "http://www.w3.org/Graphics/SVG/1.1/DTD/svg11.dtd">
<svg version="1.1" id="Layer_1" xmlns="http://www.w3.org/2000/svg" xmlns:xlink="http://www.w3.org/1999/xlink" x="0px" y="0px"
	 viewBox="0 0 95.2 46.1" enable-background="new 0 0 95.2 46.1" xml:space="preserve">
<g>
	
		<path id="loop-sign" fill="none" stroke="#EFC41C" stroke-width="8" stroke-linecap="square" stroke-miterlimit="10" stroke-dasharray="216,1.000000e-06" stroke-dashoffset="43" d="
		M8.6,23.1c0,10,7,17,17,17c17,0,26-34,43-34c10,0,18,7,18,17s-8,17-18,17c-17,0-26-34-43-34C15.6,6.1,8.6,13.1,8.6,23.1z"/>
	<path id="shade" opacity="0.15" fill="#010101" enable-background="new    " d="M42,23.1l5,6.5c0,0-2.1,2.8-3.5,4.2
		c0,0-3.6-3.6-5.7-5.6C39.1,26.9,42,23.1,42,23.1z"/>
</g>
</svg>
