<?xml version="1.0" encoding="utf-8"?>
<!-- Generator: Adobe Illustrator 18.0.0, SVG Export Plug-In . SVG Version: 6.00 Build 0)  -->
<!DOCTYPE svg PUBLIC "-//W3C//DTD SVG 1.1//EN" "http://www.w3.org/Graphics/SVG/1.1/DTD/svg11.dtd">
<svg version="1.1" id="Layer_1" xmlns="http://www.w3.org/2000/svg" xmlns:xlink="http://www.w3.org/1999/xlink" x="0px" y="0px"
	 viewBox="0 0 128 128" enable-background="new 0 0 128 128" xml:space="preserve">
<g>
	<path fill="#BDC3C7" d="M99.7,28.3C90.2,18.8,77.5,13.5,64,13.5c-13.5,0-26.2,5.3-35.7,14.8C18.8,37.8,13.5,50.5,13.5,64
		c0,13.5,5.3,26.2,14.8,35.7c9.5,9.5,22.2,14.8,35.7,14.8s26.2-5.3,35.7-14.8C119.4,80,119.4,48,99.7,28.3z M56.6,64.3
		c0-1.5,0.5-3,1.3-4.2L38.5,38.5c-0.7-0.8-0.7-2.1,0.2-2.8c0.8-0.7,2.1-0.7,2.8,0.2l19.4,21.6c1-0.5,2.2-0.8,3.5-0.8
		c3.5,0,6.5,2.4,7.4,5.6L89.1,62c0,0,0,0,0,0c1.1,0,2,0.9,2,2c0,1.1-0.9,2-2,2l-17.4,0.2c-0.9,3.3-3.9,5.8-7.4,5.8
		C60.1,72,56.6,68.5,56.6,64.3z"/>
	<path fill="#BDC3C7" d="M64.3,69c2.6,0,4.7-2.1,4.7-4.7c0-2.6-2.1-4.7-4.7-4.7s-4.7,2.1-4.7,4.7C59.6,66.9,61.7,69,64.3,69z"/>
</g>
</svg>
